# xmcd
#
# Track frame offsets:
#	150
#	20027
#	32983
#	46414
#	63249
#	84660
#	97600
#	116385
#	149986
#	162341
#	183468
#
# Disc length: 3016 seconds
#
# Revision: 0
# Processed by: cddbd v1.5.1PL0 Copyright (c) Steve Scherf et al.
# Submitted via: EasyCDDAExtractor 8.0.2.1
#
DISCID=950bc60b
DTITLE=Alice Cooper - Tower City Amphitheatre Clevelnad 05-10-02 Disc 2
DYEAR=2002
DGENRE=Hard Rock
TTITLE0=No More Mr Nice Guy 
TTITLE1=Is It My Body 
TTITLE2=Fantasy Man 
TTITLE3=Trash
TTITLE4=Lost In America
TTITLE5=I Never Cry 
TTITLE6=Only Women Bleed 
TTITLE7=Poison
TTITLE8=Under My Wheels 
TTITLE9=School's Out
TTITLE10=Elected - Cold Ethyl - Department Of Youth
EXTD=
EXTT0=
EXTT1=
EXTT2=
EXTT3=
EXTT4=
EXTT5=
EXTT6=
EXTT7=
EXTT8=
EXTT9=
EXTT10=
PLAYORDER=
